<svg width="26" height="20" viewBox="0 0 26 20" fill="none" xmlns="http://www.w3.org/2000/svg">
<path d="M21.8789 1.67213C20.207 0.890975 18.4193 0.323237 16.5503 0C16.3208 0.414407 16.0526 0.971784 15.8678 1.4152C13.881 1.11683 11.9125 1.11683 9.9623 1.4152C9.77743 0.971784 9.50318 0.414407 9.2716 0C7.40062 0.323237 5.61089 0.893047 3.939 1.67628C0.56676 6.76519 -0.3474 11.7277 0.10968 16.6198C2.34633 18.2878 4.5139 19.301 6.64491 19.9641C7.17106 19.2409 7.64033 18.4722 8.04459 17.662C7.27466 17.3699 6.53724 17.0093 5.84045 16.5908C6.02531 16.454 6.20611 16.3111 6.38082 16.1639C10.6306 18.149 15.2482 18.149 19.4472 16.1639C19.624 16.3111 19.8048 16.454 19.9876 16.5908C19.2888 17.0114 18.5493 17.3719 17.7794 17.6641C18.1836 18.4722 18.6509 19.243 19.1791 19.9661C21.3121 19.3031 23.4817 18.2899 25.7184 16.6198C26.2547 10.9486 24.8022 6.03169 21.8789 1.67213ZM8.62356 13.6112C7.3478 13.6112 6.30159 12.4218 6.30159 10.9735C6.30159 9.52514 7.32545 8.33372 8.62356 8.33372C9.92167 8.33372 10.9679 9.52307 10.9455 10.9735C10.9476 12.4218 9.92167 13.6112 8.62356 13.6112ZM17.2045 13.6112C15.9287 13.6112 14.8825 12.4218 14.8825 10.9735C14.8825 9.52514 15.9064 8.33372 17.2045 8.33372C18.5026 8.33372 19.5488 9.52307 19.5264 10.9735C19.5264 12.4218 18.5026 13.6112 17.2045 13.6112Z" fill="white"/>
</svg>
