<svg width="25" height="27" viewBox="0 0 25 27" xmlns="http://www.w3.org/2000/svg">
<path d="M0.625471 9.34166L11.875 16.2281C12.065 16.3443 12.2806 16.4055 12.5 16.4055C12.7194 16.4055 12.935 16.3443 13.125 16.2281L24.3745 9.34166C24.5634 9.22611 24.7205 9.06019 24.8302 8.86039C24.9398 8.66059 24.9982 8.43386 24.9995 8.20275C25.0004 7.9694 24.943 7.73994 24.8333 7.53761C24.7235 7.33529 24.5653 7.16728 24.3745 7.0506L13.125 0.177424C12.935 0.0611916 12.7194 0 12.5 0C12.2806 0 12.065 0.0611916 11.875 0.177424L0.625471 7.0506C0.434723 7.16728 0.276462 7.33529 0.166712 7.53761C0.0569623 7.73994 -0.000378555 7.9694 0.000495869 8.20275C0.00181253 8.43386 0.0601921 8.66059 0.169833 8.86039C0.279473 9.06019 0.436556 9.22611 0.625471 9.34166ZM12.5 2.90551L21.2497 8.20275L12.5 13.5L3.75035 8.20275L12.5 2.90551ZM23.1246 12.4008L12.5 18.7972L1.87542 12.3478C1.73276 12.2603 1.57516 12.2035 1.41169 12.1807C1.24822 12.158 1.08212 12.1697 0.922955 12.2153C0.763786 12.2608 0.614694 12.3393 0.484265 12.4461C0.353837 12.553 0.244649 12.6861 0.16299 12.8378C3.04158e-05 13.1419 -0.0428007 13.502 0.0438419 13.8394C0.130485 14.1768 0.339568 14.4642 0.625471 14.6389L11.875 21.5253C12.065 21.6416 12.2806 21.7028 12.5 21.7028C12.7194 21.7028 12.935 21.6416 13.125 21.5253L24.3745 14.6389C24.6604 14.4642 24.8695 14.1768 24.9562 13.8394C25.0428 13.502 25 13.1419 24.837 12.8378C24.7554 12.6861 24.6462 12.553 24.5157 12.4461C24.3853 12.3393 24.2362 12.2608 24.077 12.2153C23.9179 12.1697 23.7518 12.158 23.5883 12.1807C23.4248 12.2035 23.2672 12.2603 23.1246 12.3478V12.4008ZM23.1246 17.6981L12.5 24.0945L1.87542 17.6451C1.73276 17.5575 1.57516 17.5007 1.41169 17.478C1.24822 17.4552 1.08212 17.467 0.922955 17.5125C0.763786 17.558 0.614694 17.6365 0.484265 17.7434C0.353837 17.8502 0.244649 17.9833 0.16299 18.1351C3.04158e-05 18.4392 -0.0428007 18.7992 0.0438419 19.1366C0.130485 19.474 0.339568 19.7615 0.625471 19.9362L11.875 26.8226C12.065 26.9388 12.2806 27 12.5 27C12.7194 27 12.935 26.9388 13.125 26.8226L24.3745 19.9362C24.6604 19.7615 24.8695 19.474 24.9562 19.1366C25.0428 18.7992 25 18.4392 24.837 18.1351C24.7554 17.9833 24.6462 17.8502 24.5157 17.7434C24.3853 17.6365 24.2362 17.558 24.077 17.5125C23.9179 17.467 23.7518 17.4552 23.5883 17.478C23.4248 17.5007 23.2672 17.5575 23.1246 17.6451V17.6981Z"/>
</svg>
