<svg width="26" height="27" viewBox="0 0 26 27" xmlns="http://www.w3.org/2000/svg">
<path d="M23.0853 0C18.7587 0 12.9576 3.08146 9.06067 8.37924H5.82932C3.49558 8.37924 2.15826 10.1892 1.23646 12.1017L0 14.6637H5.82932L8.85493 17.8059L11.8805 20.9481V27L14.3474 25.718C16.189 24.7627 17.9317 23.3718 17.9317 20.9481V17.5922C23.0329 13.545 26 7.51827 26 3.027V0H23.0853ZM17.9317 6.28443C18.4667 6.28443 18.9797 6.50513 19.358 6.89798C19.7363 7.29084 19.9488 7.82366 19.9488 8.37924C19.9488 8.93482 19.7363 9.46764 19.358 9.86049C18.9797 10.2533 18.4667 10.474 17.9317 10.474C17.3968 10.474 16.8837 10.2533 16.5054 9.86049C16.1272 9.46764 15.9147 8.93482 15.9147 8.37924C15.9147 7.82366 16.1272 7.29084 16.5054 6.89798C16.8837 6.50513 17.3968 6.28443 17.9317 6.28443ZM4.82079 18.8533L3.81226 19.9007C2.35593 21.4131 1.79519 25.1377 1.79519 25.1377C1.79519 25.1377 5.22017 24.7229 6.83786 23.0429L7.84639 21.9955L4.82079 18.8533Z" />
</svg>
