<svg width="28" height="27" viewBox="0 0 28 27" xmlns="http://www.w3.org/2000/svg">
<path d="M11.9741 23.0917C14.6309 23.0912 17.211 22.2336 19.3038 20.6555L25.8836 27L28 24.9593L21.4202 18.6148C23.0577 16.5967 23.9476 14.1082 23.9483 11.5459C23.9483 5.17976 18.5764 0 11.9741 0C5.37189 0 0 5.17976 0 11.5459C0 17.912 5.37189 23.0917 11.9741 23.0917ZM11.9741 2.88647C16.9269 2.88647 20.9547 6.77021 20.9547 11.5459C20.9547 16.3215 16.9269 20.2053 11.9741 20.2053C7.02133 20.2053 2.99353 16.3215 2.99353 11.5459C2.99353 6.77021 7.02133 2.88647 11.9741 2.88647Z" />
</svg>
