<svg width="21" height="27" viewBox="0 0 21 27" xmlns="http://www.w3.org/2000/svg">
<path d="M11.3283 19.9923C11.2709 19.9367 11.2084 19.8874 11.1417 19.845C11.0821 19.7964 11.015 19.7591 10.9433 19.7345C10.8739 19.6972 10.7989 19.6723 10.7217 19.6609C10.4982 19.6112 10.2654 19.637 10.0567 19.7345C9.91189 19.7897 9.78041 19.8776 9.67153 19.9921C9.56266 20.1067 9.47906 20.245 9.42667 20.3973C9.36135 20.5429 9.32939 20.7026 9.33333 20.8636C9.33147 21.0232 9.35921 21.1816 9.415 21.33C9.48264 21.4767 9.569 21.6129 9.67167 21.735C9.78068 21.8487 9.90997 21.9387 10.0521 21.9998C10.1943 22.0609 10.3465 22.0918 10.5 22.0909C10.653 22.0951 10.8049 22.0614 10.9433 21.9927C11.0847 21.9306 11.2149 21.8434 11.3283 21.735C11.4365 21.6203 11.522 21.4843 11.5801 21.3348C11.6381 21.1853 11.6676 21.0252 11.6667 20.8636C11.6648 20.7033 11.6331 20.5448 11.5733 20.3973C11.5178 20.2466 11.4345 20.109 11.3283 19.9923ZM6.475 14.9359C6.41544 14.8873 6.34834 14.85 6.27667 14.8255C6.20872 14.7795 6.13372 14.7463 6.055 14.7273C5.90533 14.6906 5.74967 14.6906 5.6 14.7273L5.39 14.8009L5.18 14.9114L5.005 15.0586C4.78628 15.3 4.66501 15.6211 4.66667 15.9545C4.66578 16.1161 4.69521 16.2762 4.75327 16.4257C4.81133 16.5752 4.89687 16.7112 5.005 16.8259C5.1184 16.9343 5.24862 17.0215 5.39 17.0836C5.56675 17.16 5.75863 17.1896 5.94877 17.1697C6.13892 17.1498 6.32151 17.0811 6.4805 16.9696C6.63949 16.8581 6.77001 16.7072 6.86059 16.5302C6.95118 16.3532 6.99905 16.1556 7 15.9545C6.9957 15.6296 6.87486 15.3184 6.66167 15.0832L6.475 14.9359ZM6.66167 19.9923C6.55071 19.8805 6.41988 19.793 6.27667 19.7345C6.06547 19.6315 5.82982 19.5973 5.6 19.6364L5.39 19.71C5.31565 19.7369 5.24504 19.774 5.18 19.8205C5.11888 19.8658 5.06044 19.9149 5.005 19.9677C4.89879 20.0844 4.81553 20.2221 4.76 20.3727C4.69828 20.5196 4.6664 20.6785 4.6664 20.8391C4.6664 20.9997 4.69828 21.1586 4.76 21.3055C4.81908 21.4542 4.90195 21.5912 5.005 21.7105C5.11207 21.8286 5.24049 21.9232 5.38272 21.9885C5.52495 22.0538 5.67815 22.0886 5.83333 22.0909C5.98637 22.0951 6.13821 22.0614 6.27667 21.9927C6.41805 21.9306 6.54827 21.8434 6.66167 21.735C6.76472 21.6157 6.84758 21.4787 6.90667 21.33C6.96839 21.1831 7.00027 21.0243 7.00027 20.8636C7.00027 20.703 6.96839 20.5442 6.90667 20.3973C6.85114 20.2466 6.76788 20.109 6.66167 19.9923ZM10.0567 14.8255C9.91346 14.8839 9.78262 14.9715 9.67167 15.0832C9.45848 15.3184 9.33763 15.6296 9.33333 15.9545C9.33428 16.1556 9.38216 16.3532 9.47274 16.5302C9.56332 16.7072 9.69384 16.8581 9.85284 16.9696C10.0118 17.0811 10.1944 17.1498 10.3846 17.1697C10.5747 17.1896 10.7666 17.16 10.9433 17.0836C11.0847 17.0215 11.2149 16.9343 11.3283 16.8259C11.4365 16.7112 11.522 16.5752 11.5801 16.4257C11.6381 16.2762 11.6676 16.1161 11.6667 15.9545C11.6624 15.6296 11.5415 15.3184 11.3283 15.0832C11.1643 14.9129 10.9559 14.7975 10.7296 14.7517C10.5033 14.7058 10.2691 14.7315 10.0567 14.8255ZM15.995 19.9923C15.8816 19.8839 15.7514 19.7967 15.61 19.7345C15.3975 19.6406 15.1634 19.6149 14.937 19.6608C14.7107 19.7066 14.5024 19.822 14.3383 19.9923C14.2321 20.109 14.1489 20.2466 14.0933 20.3973C14.0316 20.5442 13.9997 20.703 13.9997 20.8636C13.9997 21.0243 14.0316 21.1831 14.0933 21.33C14.1524 21.4787 14.2353 21.6157 14.3383 21.735C14.4473 21.8487 14.5766 21.9387 14.7188 21.9998C14.8609 22.0609 15.0131 22.0918 15.1667 22.0909C15.3197 22.0951 15.4715 22.0614 15.61 21.9927C15.7514 21.9306 15.8816 21.8434 15.995 21.735C16.1569 21.5624 16.2665 21.3433 16.3101 21.1052C16.3538 20.8671 16.3293 20.6208 16.24 20.3973C16.1845 20.2466 16.1012 20.109 15.995 19.9923ZM15.1667 4.90909H5.83333C5.52391 4.90909 5.22717 5.03839 5.00838 5.26855C4.78958 5.49871 4.66667 5.81087 4.66667 6.13636V11.0455C4.66667 11.3709 4.78958 11.6831 5.00838 11.9133C5.22717 12.1434 5.52391 12.2727 5.83333 12.2727H15.1667C15.4761 12.2727 15.7728 12.1434 15.9916 11.9133C16.2104 11.6831 16.3333 11.3709 16.3333 11.0455V6.13636C16.3333 5.81087 16.2104 5.49871 15.9916 5.26855C15.7728 5.03839 15.4761 4.90909 15.1667 4.90909ZM14 9.81818H7V7.36364H14V9.81818ZM17.5 0H3.5C2.57174 0 1.6815 0.387905 1.02513 1.07838C0.368749 1.76885 0 2.70534 0 3.68182V23.3182C0 24.2947 0.368749 25.2311 1.02513 25.9216C1.6815 26.6121 2.57174 27 3.5 27H17.5C18.4283 27 19.3185 26.6121 19.9749 25.9216C20.6313 25.2311 21 24.2947 21 23.3182V3.68182C21 2.70534 20.6313 1.76885 19.9749 1.07838C19.3185 0.387905 18.4283 0 17.5 0ZM18.6667 23.3182C18.6667 23.6437 18.5438 23.9558 18.325 24.186C18.1062 24.4162 17.8094 24.5455 17.5 24.5455H3.5C3.19058 24.5455 2.89383 24.4162 2.67504 24.186C2.45625 23.9558 2.33333 23.6437 2.33333 23.3182V3.68182C2.33333 3.35633 2.45625 3.04416 2.67504 2.81401C2.89383 2.58385 3.19058 2.45455 3.5 2.45455H17.5C17.8094 2.45455 18.1062 2.58385 18.325 2.81401C18.5438 3.04416 18.6667 3.35633 18.6667 3.68182V23.3182ZM15.8083 14.9359C15.7488 14.8873 15.6817 14.85 15.61 14.8255C15.5405 14.7881 15.4656 14.7632 15.3883 14.7518C15.2387 14.7152 15.083 14.7152 14.9333 14.7518L14.7233 14.8255L14.5133 14.9359L14.3383 15.0832C14.1251 15.3184 14.0043 15.6296 14 15.9545C14.001 16.1556 14.0488 16.3532 14.1394 16.5302C14.23 16.7072 14.3605 16.8581 14.5195 16.9696C14.6785 17.0811 14.8611 17.1498 15.0512 17.1697C15.2414 17.1896 15.4333 17.16 15.61 17.0836C15.7514 17.0215 15.8816 16.9343 15.995 16.8259C16.1031 16.7112 16.1887 16.5752 16.2467 16.4257C16.3048 16.2762 16.3342 16.1161 16.3333 15.9545C16.329 15.6296 16.2082 15.3184 15.995 15.0832L15.8083 14.9359Z" />
</svg>
