<svg width="46" height="39" viewBox="0 0 46 39"  xmlns="http://www.w3.org/2000/svg">
<path d="M14.2259 28.2476L14.2244 28.2464C13.677 27.7661 13.1297 27.2949 12.5884 26.8289C10.5468 25.0711 8.59152 23.3876 7.0393 21.5752C5.08118 19.2888 3.7841 16.8181 3.7841 13.7716C3.7841 8.10122 8.01147 3.45189 13.0992 3.45189C14.9861 3.45189 16.437 3.90063 17.5936 4.60125C18.7519 5.30291 19.6249 6.2632 20.3465 7.30048L20.3464 7.30051L20.3489 7.30395C21.2102 8.48247 21.7081 9.36528 22.0251 9.95406C22.0662 10.0304 22.1047 10.1026 22.1409 10.1705C22.2425 10.3611 22.3256 10.5172 22.3957 10.631C22.4433 10.7083 22.4922 10.7788 22.5449 10.8315C22.5965 10.8831 22.6749 10.9407 22.7798 10.9407C22.8848 10.9407 22.9632 10.8831 23.0148 10.8315C23.0675 10.7788 23.1164 10.7083 23.164 10.631C23.2341 10.5172 23.3172 10.3611 23.4188 10.1705C23.455 10.1026 23.4935 10.0304 23.5346 9.95406C23.8516 9.36528 24.3495 8.48247 25.2107 7.30395L25.2108 7.30398L25.2132 7.30048C25.9348 6.2632 26.8078 5.30291 27.9661 4.60125C29.1227 3.90063 30.5736 3.45189 32.4605 3.45189C37.5482 3.45189 41.7756 8.10122 41.7756 13.7716C41.7756 16.8172 40.4565 19.2878 38.4865 21.5748C36.9888 23.3134 35.1279 24.9325 33.1966 26.6128C32.5797 27.1495 31.9557 27.6924 31.3341 28.2474C30.097 29.3519 29.0051 30.3328 28.0471 31.1933C27.0233 32.113 26.1525 32.8952 25.4211 33.544C24.0969 34.7186 23.2469 35.4402 22.7823 35.7462C22.2597 35.3879 21.2392 34.5175 19.8303 33.2699C18.8799 32.4284 17.7592 31.4211 16.5055 30.2942C15.787 29.6484 15.0247 28.9633 14.2259 28.2476ZM10.4223 28.9789L10.4249 28.9811C10.9721 29.4371 11.6061 29.9807 12.1479 30.5225L12.1475 30.5228L12.1572 30.5312L14.2564 32.3566C14.2566 32.3568 14.2569 32.357 14.2571 32.3572C14.8126 32.8496 15.3298 33.3089 15.8112 33.7364C17.0697 34.854 18.0829 35.7537 18.8927 36.4562C20.0083 37.4237 20.7515 38.029 21.2245 38.3128C21.7008 38.5986 22.2811 38.7955 22.7798 38.7955C23.3728 38.7955 23.8624 38.5965 24.3352 38.3128C24.8076 38.0294 25.4581 37.5168 26.5534 36.5584C27.6512 35.5978 29.2052 34.1809 31.4877 32.0811C31.4879 32.0808 31.4882 32.0806 31.4885 32.0803L33.3102 30.4407C33.3108 30.4402 33.3114 30.4397 33.3119 30.4392C33.5241 30.2573 33.7231 30.0785 33.9168 29.9044C34.3192 29.5429 34.6984 29.2021 35.124 28.8981L35.1243 28.8985L35.1346 28.89C39.9641 24.8805 44.8813 20.6276 44.8813 13.7716C44.8813 6.37826 39.3332 0.346152 32.4605 0.346152C28.3704 0.346152 25.2531 1.95614 22.7779 5.3335C20.3033 2.04606 17.1879 0.437804 13.1004 0.43748C6.22583 0.345313 0.678367 6.37941 0.678367 13.7716C0.678367 20.5356 5.68742 24.8814 10.4223 28.9789Z" stroke="black" stroke-width="0.365923"/>
</svg>
