<svg width="35" height="40" viewBox="0 0 35 40" fill="none" xmlns="http://www.w3.org/2000/svg">
<mask id="path-1-inside-1_603_1700" fill="white">
<path d="M33.0439 39.3193C32.7231 39.3193 32.4024 39.1583 32.1618 38.9972L17.4067 24.0162L2.65161 38.9972C2.33085 39.3193 1.76951 39.4804 1.36856 39.2388C0.887413 39.0777 0.56665 38.5945 0.56665 38.1112V1.86698C0.56665 1.22264 1.12799 0.658844 1.76951 0.658844H33.0439C33.6854 0.658844 34.2467 1.22264 34.2467 1.86698V38.1112C34.2467 38.5945 33.926 39.0777 33.525 39.2388C33.3646 39.3193 33.2043 39.3193 33.0439 39.3193Z"/>
</mask>
<path d="M32.1618 38.9972L29.294 41.8217L29.5817 42.1137L29.9223 42.3418L32.1618 38.9972ZM17.4067 24.0162L20.2744 21.1917C19.5179 20.4236 18.4848 19.9911 17.4067 19.9911C16.3286 19.9911 15.2955 20.4236 14.539 21.1917L17.4067 24.0162ZM2.65161 38.9972L5.50404 41.8371L5.51172 41.8294L5.51935 41.8217L2.65161 38.9972ZM1.36856 39.2388L3.44615 35.7913L3.06663 35.5626L2.64645 35.4219L1.36856 39.2388ZM0.56665 1.86698H-3.4585H0.56665ZM33.525 39.2388L32.0245 35.5038L31.8687 35.5664L31.7186 35.6418L33.525 39.2388ZM33.0439 35.2942C33.5423 35.2942 33.9023 35.415 34.0733 35.4837C34.2526 35.5557 34.3624 35.6265 34.4013 35.6526L29.9223 42.3418C30.3624 42.6365 31.5081 43.3445 33.0439 43.3445V35.2942ZM35.0295 36.1727L20.2744 21.1917L14.539 26.8407L29.294 41.8217L35.0295 36.1727ZM14.539 21.1917L-0.216134 36.1727L5.51935 41.8217L20.2744 26.8407L14.539 21.1917ZM-0.200825 36.1572C0.194938 35.7597 0.670732 35.5084 1.18151 35.3969C1.70083 35.2835 2.56517 35.2604 3.44615 35.7913L-0.709035 42.6863C0.572899 43.4589 1.91838 43.476 2.8988 43.2619C3.87067 43.0497 4.78752 42.5568 5.50404 41.8371L-0.200825 36.1572ZM2.64645 35.4219C3.90065 35.8418 4.5918 36.9654 4.5918 38.1112H-3.4585C-3.4585 40.2235 -2.12582 42.3136 0.0906697 43.0557L2.64645 35.4219ZM4.5918 38.1112V1.86698H-3.4585V38.1112H4.5918ZM4.5918 1.86698C4.5918 2.72325 4.22605 3.41319 3.77994 3.86125C3.33403 4.30912 2.63912 4.68399 1.76951 4.68399V-3.3663C-1.11164 -3.3663 -3.4585 -0.983745 -3.4585 1.86698L4.5918 1.86698ZM1.76951 4.68399H33.0439V-3.3663H1.76951V4.68399ZM33.0439 4.68399C32.1743 4.68399 31.4794 4.30912 31.0335 3.86126C30.5874 3.41319 30.2216 2.72326 30.2216 1.86698H38.2719C38.2719 -0.983752 35.925 -3.3663 33.0439 -3.3663V4.68399ZM30.2216 1.86698V38.1112H38.2719V1.86698H30.2216ZM30.2216 38.1112C30.2216 37.4849 30.4186 36.9773 30.657 36.6089C30.8864 36.2544 31.3108 35.7905 32.0245 35.5038L35.0256 42.9738C37.0702 42.1523 38.2719 40.1066 38.2719 38.1112H30.2216ZM31.7186 35.6418C32.1387 35.4308 32.5222 35.3482 32.7831 35.3155C32.9938 35.289 33.165 35.2942 33.0439 35.2942V43.3445C33.1029 43.3445 34.2009 43.4036 35.3314 42.8358L31.7186 35.6418Z" fill="black" mask="url(#path-1-inside-1_603_1700)"/>
</svg>
