<svg width="44" height="44" viewBox="0 0 44 44" fill="none" xmlns="http://www.w3.org/2000/svg">
<path d="M19.1281 0.0896301C8.7027 0.0896301 0.220459 8.57187 0.220459 18.9973C0.220459 29.4232 8.7027 37.9049 19.1281 37.9049C29.5541 37.9049 38.0357 29.4232 38.0357 18.9973C38.0357 8.57187 29.5541 0.0896301 19.1281 0.0896301ZM19.1281 34.4143C10.6272 34.4143 3.7111 27.4982 3.7111 18.9973C3.7111 10.4965 10.6272 3.58027 19.1281 3.58027C27.6289 3.58027 34.5451 10.4964 34.5451 18.9973C34.5451 27.4981 27.6289 34.4143 19.1281 34.4143Z" fill="black"/>
<path d="M42.6443 40.0454L32.6377 30.0388C31.9559 29.357 30.8517 29.357 30.1698 30.0388C29.488 30.7201 29.488 31.8255 30.1698 32.5068L40.1763 42.5133C40.5172 42.8542 40.9635 43.0246 41.4103 43.0246C41.8565 43.0246 42.3033 42.8542 42.6443 42.5133C43.3261 41.832 43.3261 40.7266 42.6443 40.0454Z" fill="black"/>
</svg>
