<svg width="22" height="22" viewBox="0 0 22 22" fill="none" xmlns="http://www.w3.org/2000/svg">
<path d="M20.5857 5.97658C21.3667 5.19553 21.3667 3.9292 20.5857 3.14815L18.8518 1.41422C18.0707 0.63317 16.8044 0.633169 16.0233 1.41422L11 6.43762L5.97656 1.41422C5.19551 0.633168 3.92917 0.633168 3.14813 1.41422L1.4142 3.14815C0.63316 3.9292 0.633162 5.19553 1.41421 5.97658L6.43761 11L1.4142 16.0234C0.633159 16.8045 0.633157 18.0708 1.4142 18.8518L3.14812 20.5858C3.92917 21.3668 5.19551 21.3668 5.97656 20.5858L11 15.5624L16.0234 20.5858C16.8044 21.3668 18.0707 21.3668 18.8518 20.5858L20.5858 18.8519C21.3668 18.0708 21.3668 16.8045 20.5858 16.0234L15.5623 11L20.5857 5.97658Z" fill="#F24C65"/>
</svg>
