<svg width="23" height="22" viewBox="0 0 23 22" fill="none" xmlns="http://www.w3.org/2000/svg">
<path d="M20.9617 2.0998C20.3259 1.43504 19.5698 0.907315 18.7368 0.546957C17.9039 0.186599 17.0106 0.000717818 16.1082 0C14.4014 0.000289661 12.7569 0.665941 11.5003 1.86516C10.2438 0.665739 8.59926 5.57315e-05 6.89239 0C5.98896 0.000976517 5.09463 0.187425 4.26088 0.548615C3.42712 0.909806 2.6704 1.43861 2.03426 2.10459C-0.679048 4.93345 -0.677895 9.35811 2.03657 12.175L10.0598 20.5046C10.8465 21.3213 12.1541 21.3213 12.9407 20.5046L20.964 12.175C23.6785 9.35811 23.6796 4.93345 20.9617 2.0998Z" fill="#3CDBA7"/>
</svg>
