<svg width="18" height="18" viewBox="0 0 18 18" fill="none" xmlns="http://www.w3.org/2000/svg">
<path d="M9 0C7.8181 0 6.64778 0.232792 5.55585 0.685084C4.46392 1.13738 3.47177 1.80031 2.63604 2.63604C0.948211 4.32387 0 6.61305 0 9C0 11.3869 0.948211 13.6761 2.63604 15.364C3.47177 16.1997 4.46392 16.8626 5.55585 17.3149C6.64778 17.7672 7.8181 18 9 18C11.3869 18 13.6761 17.0518 15.364 15.364C17.0518 13.6761 18 11.3869 18 9C18 7.8181 17.7672 6.64778 17.3149 5.55585C16.8626 4.46392 16.1997 3.47177 15.364 2.63604C14.5282 1.80031 13.5361 1.13738 12.4442 0.685084C11.3522 0.232792 10.1819 0 9 0ZM9 5.751C10.4522 6.69446 12.1463 7.19768 13.878 7.2C14.58 7.2 15.255 7.119 15.903 6.966C16.092 7.605 16.2 8.289 16.2 9C16.2 12.969 12.969 16.2 9 16.2C6.3 16.2 3.951 14.706 2.7 12.501L4.275 10.8V9.9C4.275 9.60163 4.39353 9.31548 4.6045 9.1045C4.81548 8.89353 5.10163 8.775 5.4 8.775C5.69837 8.775 5.98452 8.89353 6.1955 9.1045C6.40647 9.31548 6.525 9.60163 6.525 9.9V10.8H9V5.751ZM12.6 8.775C12.3016 8.775 12.0155 8.89353 11.8045 9.1045C11.5935 9.31548 11.475 9.60163 11.475 9.9C11.475 10.1984 11.5935 10.4845 11.8045 10.6955C12.0155 10.9065 12.3016 11.025 12.6 11.025C12.8984 11.025 13.1845 10.9065 13.3955 10.6955C13.6065 10.4845 13.725 10.1984 13.725 9.9C13.725 9.60163 13.6065 9.31548 13.3955 9.1045C13.1845 8.89353 12.8984 8.775 12.6 8.775Z" fill="#B3B3B3"/>
</svg>
