<svg width="18" height="22" viewBox="0 0 18 22" fill="none" xmlns="http://www.w3.org/2000/svg">
<path d="M1.03514 6.69361C0.513048 6.29334 0.513049 5.50666 1.03514 5.10639L7.39158 0.233129C8.04942 -0.271216 9.00001 0.197807 9.00001 1.02673V3.6C10.7801 3.6 12.5201 4.13958 14.0002 5.15048C15.4802 6.16139 16.6338 7.59823 17.3149 9.27932C17.9961 10.9604 18.1743 12.8102 17.8271 14.5948C17.4798 16.3795 16.6226 18.0187 15.3639 19.3054C14.1053 20.592 12.5016 21.4682 10.7558 21.8232C9.00999 22.1782 7.20035 21.996 5.55588 21.2997C3.91132 20.6034 2.50571 19.4242 1.51676 17.9112C0.940065 17.029 0.520185 16.0564 0.270334 15.038C-0.0270234 13.826 1.01168 12.8 2.25966 12.8C3.50764 12.8 4.47348 13.8684 5.05538 14.9725C5.1224 15.0996 5.19547 15.2238 5.27445 15.3447C5.76682 16.0979 6.46656 16.6849 7.28532 17.0316C8.10407 17.3783 9.00495 17.469 9.87416 17.2923C10.7434 17.1155 11.5417 16.6793 12.1684 16.0387C12.795 15.3982 13.2218 14.5821 13.3946 13.6936C13.5675 12.8051 13.4788 11.8841 13.1397 11.0472C12.8005 10.2103 12.2262 9.49492 11.4893 8.99163C10.7525 8.48834 9.88624 8.21972 9.00001 8.21972V10.7733C9.00001 11.6022 8.04942 12.0712 7.39158 11.5669L1.03514 6.69361Z" fill="#F2B721"/>
</svg>
