<svg width="29" height="29" viewBox="0 0 29 29" xmlns="http://www.w3.org/2000/svg">
<path fill-rule="evenodd" clip-rule="evenodd" d="M28 14.5C28 7.04416 21.9558 1 14.5 1C7.04416 1 1 7.04416 1 14.5C1 21.9558 7.04416 28 14.5 28C21.9558 28 28 21.9558 28 14.5ZM26.4259 14.5009C26.4264 7.91384 21.0871 2.5735 14.5 2.57275C11.3365 2.57248 8.30245 3.82897 6.06539 6.06578C3.82832 8.30259 2.57149 11.3365 2.5714 14.5C2.5714 21.0871 7.91114 26.427 14.4982 26.4272C21.0853 26.4275 26.4254 21.088 26.4259 14.5009ZM10.2293 8.64437C9.81201 8.6394 9.41017 8.80197 9.11373 9.09568C8.8173 9.38939 8.65102 9.7897 8.65214 10.207C8.65214 11.078 9.35825 11.7841 10.2293 11.7841C11.1003 11.7841 11.8064 11.078 11.8064 10.207C11.8075 9.7897 11.6413 9.38939 11.3448 9.09568C11.0484 8.80197 10.6465 8.6394 10.2293 8.64437ZM17.6638 9.09566C17.9603 8.80196 18.3622 8.6394 18.7795 8.64437C19.1967 8.6395 19.5985 8.80209 19.8949 9.09578C20.1914 9.38947 20.3577 9.78973 20.3566 10.207C20.365 10.776 20.0662 11.3054 19.5747 11.5923C19.0833 11.8793 18.4754 11.8793 17.9839 11.5923C17.4925 11.3054 17.1937 10.776 17.202 10.207C17.201 9.78967 17.3673 9.38936 17.6638 9.09566ZM23.4967 16.8254C22.7779 20.71 19.0286 23.9534 14.4983 23.9534C10.0042 23.9534 6.27681 20.7572 5.51575 16.9165C5.36151 15.958 6.14654 15.7319 6.886 15.9107C9.35973 16.626 11.9251 16.974 14.5 16.9435C17.0691 16.9733 19.6286 16.6265 22.0971 15.9141C22.816 15.7319 23.5858 15.9377 23.4967 16.8254ZM21.0288 17.3756C21.038 17.3723 21.0471 17.3689 21.0563 17.3654C22.304 16.9165 22.1515 18.2463 21.3799 18.7424C19.7495 19.576 17.281 20.2206 14.5108 20.2206C12.182 20.2476 9.87576 19.7613 7.75607 18.7964C6.92751 18.3711 6.70139 16.984 7.88027 17.335C9.50635 17.9189 11.8692 18.2125 14.5111 18.2125C16.7121 18.238 18.9058 17.9563 21.0288 17.3756ZM21.0599 17.3671C21.0431 17.3722 20.996 17.3874 20.9499 17.4023C20.8939 17.4203 20.8394 17.4379 20.843 17.4362C20.8652 17.4289 20.8873 17.422 20.9094 17.415C20.9495 17.4024 20.9893 17.3898 21.0288 17.3756C21.0392 17.3728 21.0495 17.3699 21.0599 17.3671ZM21.0599 17.3671C21.0646 17.3656 21.0669 17.365 21.0661 17.3654C21.064 17.3659 21.0619 17.3665 21.0599 17.3671Z" />
<path d="M14.5 2.57275L14.5001 2.07275L14.5 2.07275L14.5 2.57275ZM26.4259 14.5009L25.9259 14.5009L25.9259 14.5009L26.4259 14.5009ZM2.5714 14.5L2.0714 14.5V14.5H2.5714ZM14.4982 26.4272L14.4982 26.9272L14.4982 26.4272ZM9.11373 9.09568L9.46565 9.45086L9.46565 9.45086L9.11373 9.09568ZM10.2293 8.64437L10.2233 9.14448L10.2352 9.14434L10.2293 8.64437ZM8.65214 10.207L9.15214 10.207L9.15214 10.2057L8.65214 10.207ZM11.8064 10.207L11.3064 10.2057V10.207H11.8064ZM11.3448 9.09568L10.9929 9.45086L10.9929 9.45086L11.3448 9.09568ZM18.7795 8.64437L18.7735 9.14448L18.7853 9.14434L18.7795 8.64437ZM17.6638 9.09566L17.312 8.74044L17.312 8.74044L17.6638 9.09566ZM19.8949 9.09578L19.543 9.45096L19.543 9.45096L19.8949 9.09578ZM20.3566 10.207L19.8566 10.2058L19.8567 10.2143L20.3566 10.207ZM19.5747 11.5923L19.3226 11.1606L19.3226 11.1606L19.5747 11.5923ZM17.202 10.207L17.702 10.2143L17.702 10.2058L17.202 10.207ZM23.4967 16.8254L23.9884 16.9164L23.9922 16.896L23.9942 16.8753L23.4967 16.8254ZM5.51575 16.9165L5.0221 16.9959L5.02353 17.0048L5.02529 17.0137L5.51575 16.9165ZM6.886 15.9107L7.02488 15.4304L7.01428 15.4274L7.00356 15.4248L6.886 15.9107ZM14.5 16.9435L14.5058 16.4434L14.4941 16.4435L14.5 16.9435ZM22.0971 15.9141L21.9743 15.4295L21.9663 15.4315L21.9585 15.4337L22.0971 15.9141ZM21.0563 17.3654L20.887 16.8948L20.8768 16.8987L21.0563 17.3654ZM21.3799 18.7424L21.6076 19.1876L21.6296 19.1763L21.6504 19.1629L21.3799 18.7424ZM14.5108 20.2206L14.5108 19.7206L14.505 19.7207L14.5108 20.2206ZM7.75607 18.7964L7.52777 19.2412L7.53822 19.2466L7.54891 19.2514L7.75607 18.7964ZM7.88027 17.335L8.04925 16.8644L8.03622 16.8597L8.02295 16.8558L7.88027 17.335ZM14.5111 18.2125L14.5169 17.7125H14.5111V18.2125ZM20.9499 17.4023L21.1033 17.8781L21.1033 17.8781L20.9499 17.4023ZM20.843 17.4362L20.6869 16.9612L20.6609 16.9698L20.636 16.9811L20.843 17.4362ZM20.9094 17.415L21.0597 17.8919L21.0597 17.8919L20.9094 17.415ZM21.0661 17.3654L21.1988 17.8474L21.2413 17.8357L21.281 17.8168L21.0661 17.3654ZM14.5 1.5C21.6797 1.5 27.5 7.3203 27.5 14.5H28.5C28.5 6.76801 22.232 0.5 14.5 0.5V1.5ZM1.5 14.5C1.5 7.3203 7.3203 1.5 14.5 1.5V0.5C6.76801 0.5 0.5 6.76801 0.5 14.5H1.5ZM14.5 27.5C7.3203 27.5 1.5 21.6797 1.5 14.5H0.5C0.5 22.232 6.76801 28.5 14.5 28.5V27.5ZM27.5 14.5C27.5 21.6797 21.6797 27.5 14.5 27.5V28.5C22.232 28.5 28.5 22.232 28.5 14.5H27.5ZM14.4999 3.07275C20.8109 3.07346 25.9264 8.18994 25.9259 14.5009L26.9259 14.5009C26.9264 7.63774 21.3633 2.07353 14.5001 2.07275L14.4999 3.07275ZM6.41892 6.41936C8.56221 4.27631 11.4691 3.07249 14.5 3.07275L14.5 2.07275C11.2039 2.07247 8.0427 3.38163 5.71185 5.71221L6.41892 6.41936ZM3.0714 14.5C3.07149 11.4691 4.27563 8.5624 6.41892 6.41936L5.71185 5.71221C3.38101 8.04279 2.07149 11.2039 2.0714 14.5L3.0714 14.5ZM14.4982 25.9272C8.18729 25.927 3.0714 20.8109 3.0714 14.5H2.0714C2.0714 21.3632 7.63498 26.927 14.4982 26.9272L14.4982 25.9272ZM25.9259 14.5009C25.9254 20.8118 20.8091 25.9275 14.4982 25.9272L14.4982 26.9272C21.3614 26.9275 26.9254 21.3641 26.9259 14.5009L25.9259 14.5009ZM9.46565 9.45086C9.66699 9.25138 9.93991 9.14096 10.2233 9.14434L10.2352 8.14441C9.6841 8.13784 9.15335 8.35256 8.76182 8.74049L9.46565 9.45086ZM9.15214 10.2057C9.15138 9.92224 9.26431 9.65035 9.46565 9.45086L8.76182 8.74049C8.37028 9.12843 8.15067 9.65717 8.15214 10.2083L9.15214 10.2057ZM10.2293 11.2841C9.63439 11.2841 9.15214 10.8019 9.15214 10.207H8.15214C8.15214 11.3542 9.0821 12.2841 10.2293 12.2841V11.2841ZM11.3064 10.207C11.3064 10.8019 10.8242 11.2841 10.2293 11.2841V12.2841C11.3764 12.2841 12.3064 11.3542 12.3064 10.207H11.3064ZM10.9929 9.45086C11.1942 9.65035 11.3072 9.92224 11.3064 10.2057L12.3064 10.2083C12.3079 9.65717 12.0883 9.12843 11.6967 8.74049L10.9929 9.45086ZM10.2352 9.14434C10.5186 9.14096 10.7916 9.25138 10.9929 9.45086L11.6967 8.74049C11.3052 8.35256 10.7745 8.13784 10.2233 8.14441L10.2352 9.14434ZM18.7855 8.14441C18.2343 8.13785 17.7035 8.35254 17.312 8.74044L18.0157 9.45088C18.2171 9.25138 18.4901 9.14096 18.7735 9.14434L18.7855 8.14441ZM20.2469 8.7406C19.8554 8.35271 19.3247 8.13796 18.7737 8.14441L18.7853 9.14434C19.0688 9.14103 19.3417 9.25147 19.543 9.45096L20.2469 8.7406ZM20.8566 10.2082C20.858 9.65712 20.6383 9.12848 20.2469 8.7406L19.543 9.45096C19.7444 9.65046 19.8573 9.92234 19.8566 10.2058L20.8566 10.2082ZM19.8268 12.0241C20.474 11.6462 20.8675 10.9491 20.8566 10.1997L19.8567 10.2143C19.8624 10.603 19.6583 10.9646 19.3226 11.1606L19.8268 12.0241ZM17.7318 12.0241C18.379 12.402 19.1796 12.402 19.8268 12.0241L19.3226 11.1606C18.9869 11.3565 18.5717 11.3565 18.2361 11.1606L17.7318 12.0241ZM16.7021 10.1997C16.6911 10.9491 17.0846 11.6462 17.7318 12.0241L18.2361 11.1606C17.9004 10.9646 17.6963 10.603 17.702 10.2143L16.7021 10.1997ZM17.312 8.74044C16.9204 9.12833 16.7007 9.65705 16.702 10.2082L17.702 10.2058C17.7013 9.9223 17.8143 9.65038 18.0157 9.45088L17.312 8.74044ZM14.4983 24.4534C19.2601 24.4534 23.2239 21.0473 23.9884 16.9164L23.0051 16.7344C22.3318 20.3727 18.7971 23.4534 14.4983 23.4534V24.4534ZM5.02529 17.0137C5.83436 21.0967 9.77393 24.4534 14.4983 24.4534V23.4534C10.2344 23.4534 6.71926 20.4178 6.00621 16.8193L5.02529 17.0137ZM7.00356 15.4248C6.56955 15.3198 6.04166 15.3106 5.61762 15.553C5.39487 15.6803 5.20819 15.8746 5.09886 16.1385C4.99165 16.3973 4.9727 16.6889 5.0221 16.9959L6.0094 16.8371C5.98168 16.6648 6.00302 16.5688 6.02273 16.5212C6.04032 16.4787 6.06719 16.4479 6.11385 16.4212C6.22863 16.3556 6.46299 16.3228 6.76844 16.3967L7.00356 15.4248ZM14.4941 16.4435C11.9682 16.4734 9.45157 16.1321 7.02488 15.4304L6.74712 16.3911C9.26789 17.1199 11.8821 17.4745 14.5059 17.4435L14.4941 16.4435ZM21.9585 15.4337C19.5369 16.1325 17.026 16.4728 14.5058 16.4435L14.4942 17.4435C17.1121 17.4738 19.7203 17.1204 22.2358 16.3945L21.9585 15.4337ZM23.9942 16.8753C24.0238 16.5803 23.9857 16.302 23.8636 16.0587C23.7402 15.8126 23.548 15.6369 23.3288 15.524C22.9091 15.3079 22.3993 15.3217 21.9743 15.4295L22.22 16.3988C22.5138 16.3243 22.7484 16.3499 22.871 16.4131C22.923 16.4399 22.9515 16.4706 22.9698 16.5071C22.9895 16.5464 23.0142 16.6266 22.9992 16.7754L23.9942 16.8753ZM20.8768 16.8987C20.8712 16.9008 20.8653 16.903 20.8592 16.9052L21.1984 17.8459C21.2106 17.8415 21.2231 17.8369 21.2357 17.8321L20.8768 16.8987ZM21.6504 19.1629C21.9203 18.9894 22.1292 18.7484 22.2682 18.4961C22.4047 18.2485 22.4925 17.9553 22.4743 17.668C22.4554 17.3678 22.31 17.0341 21.9525 16.868C21.6294 16.7178 21.2517 16.7637 20.887 16.8949L21.2255 17.8359C21.4847 17.7426 21.5559 17.7864 21.531 17.7748C21.5127 17.7663 21.4927 17.7488 21.4805 17.7283C21.4707 17.7118 21.4749 17.7086 21.4763 17.731C21.4795 17.782 21.4625 17.8862 21.3924 18.0134C21.3249 18.136 21.2254 18.2473 21.1095 18.3218L21.6504 19.1629ZM14.5108 20.7206C17.3512 20.7206 19.899 20.0611 21.6076 19.1876L21.1523 18.2972C19.5999 19.0909 17.2108 19.7206 14.5108 19.7206V20.7206ZM7.54891 19.2514C9.73542 20.2468 12.1143 20.7484 14.5166 20.7206L14.505 19.7207C12.2496 19.7468 10.0161 19.2759 7.96324 18.3413L7.54891 19.2514ZM8.02295 16.8558C7.66328 16.7487 7.27996 16.7336 6.9706 16.9388C6.64628 17.154 6.55548 17.5068 6.5657 17.7925C6.58514 18.3357 6.95802 18.9488 7.52777 19.2412L7.98438 18.3515C7.86557 18.2906 7.75848 18.189 7.67993 18.0676C7.59934 17.9431 7.56758 17.8272 7.56506 17.7567C7.56254 17.6863 7.58446 17.7316 7.52342 17.7721C7.47733 17.8027 7.50782 17.7458 7.7376 17.8142L8.02295 16.8558ZM14.5111 17.7125C11.8942 17.7125 9.59717 17.4202 8.04925 16.8644L7.7113 17.8056C9.41552 18.4175 11.8442 18.7125 14.5111 18.7125V17.7125ZM20.8969 16.8933C18.8188 17.4618 16.6714 17.7375 14.5169 17.7125L14.5053 18.7125C16.7528 18.7385 18.9929 18.4509 21.1607 17.8579L20.8969 16.8933ZM21.1033 17.8781C21.1521 17.8624 21.1942 17.8489 21.2064 17.8451L20.9134 16.889C20.8921 16.8955 20.8399 16.9124 20.7965 16.9264L21.1033 17.8781ZM20.636 16.9811C20.6316 16.9831 20.614 16.9911 20.5927 17.0034C20.5839 17.0085 20.5572 17.0241 20.5266 17.049C20.5118 17.0612 20.4816 17.087 20.4506 17.1262C20.4263 17.157 20.3568 17.2506 20.3446 17.3939C20.3287 17.5804 20.4169 17.7369 20.5325 17.8284C20.6221 17.8993 20.7113 17.9198 20.7423 17.9262C20.8115 17.9403 20.8674 17.9358 20.8767 17.9352C20.9106 17.9329 20.9369 17.9275 20.9408 17.9267C20.9567 17.9235 20.9691 17.9202 20.9713 17.9196C20.9758 17.9184 20.9796 17.9173 20.9816 17.9168C20.9888 17.9147 20.9955 17.9126 20.9983 17.9117C21.006 17.9094 21.016 17.9062 21.0262 17.9029C21.0472 17.8962 21.0755 17.8871 21.1033 17.8781L20.7965 16.9264C20.7682 16.9355 20.7413 16.9442 20.722 16.9503C20.712 16.9535 20.7055 16.9556 20.7022 16.9566C20.6995 16.9574 20.7022 16.9566 20.7068 16.9553C20.7083 16.9548 20.7115 16.9539 20.7156 16.9528C20.7174 16.9524 20.7294 16.9491 20.7451 16.946C20.749 16.9452 20.7752 16.9398 20.809 16.9375C20.8183 16.9369 20.8742 16.9324 20.9433 16.9466C20.9744 16.9529 21.0635 16.9734 21.1531 17.0443C21.2687 17.1358 21.3569 17.2923 21.341 17.4788C21.3288 17.6221 21.2593 17.7157 21.235 17.7465C21.204 17.7857 21.1739 17.8115 21.1591 17.8236C21.1285 17.8486 21.1018 17.8642 21.093 17.8692C21.0717 17.8815 21.0542 17.8895 21.0499 17.8914L20.636 16.9811ZM20.7592 16.9381C20.7376 16.9449 20.7125 16.9528 20.6869 16.9612L20.9991 17.9113C21.0179 17.9051 21.0371 17.899 21.0597 17.8919L20.7592 16.9381ZM20.8592 16.9053C20.8309 16.9155 20.8008 16.925 20.7592 16.9381L21.0597 17.8919C21.0981 17.8798 21.1477 17.8642 21.1985 17.8459L20.8592 16.9053ZM20.9272 16.885C20.9172 16.8878 20.9071 16.8905 20.8969 16.8933L21.1607 17.8579C21.1712 17.855 21.1818 17.8521 21.1925 17.8492L20.9272 16.885ZM21.2063 17.8451C21.2087 17.8444 21.2046 17.8457 21.1985 17.8474C21.1966 17.8479 21.1925 17.849 21.1872 17.8504C21.1852 17.8509 21.1695 17.8549 21.1491 17.8583C21.145 17.859 21.1085 17.8657 21.0618 17.8652C21.0506 17.8651 20.9668 17.8662 20.8712 17.8257C20.819 17.8036 20.7157 17.7491 20.6409 17.6281C20.5556 17.4901 20.554 17.3426 20.584 17.2331C20.6097 17.1392 20.6564 17.0766 20.6788 17.0492C20.7045 17.0177 20.7288 16.9959 20.743 16.9838C20.7712 16.9599 20.7958 16.9445 20.8057 16.9385C20.8277 16.9251 20.8459 16.9164 20.8511 16.9139L21.281 17.8168C21.2863 17.8143 21.3046 17.8056 21.3266 17.7921C21.3365 17.7861 21.3612 17.7707 21.3894 17.7468C21.4037 17.7347 21.4279 17.7129 21.4536 17.6814C21.476 17.654 21.5227 17.5914 21.5484 17.4974C21.5784 17.388 21.5768 17.2404 21.4916 17.1024C21.4168 16.9814 21.3134 16.927 21.2613 16.9049C21.1656 16.8644 21.0818 16.8654 21.0706 16.8653C21.0239 16.8649 20.9872 16.8715 20.9831 16.8722C20.9626 16.8757 20.9465 16.8798 20.9442 16.8804C20.9385 16.8818 20.934 16.883 20.9315 16.8837C20.9233 16.886 20.9157 16.8883 20.9134 16.889L21.2063 17.8451ZM20.9333 16.8833C20.9312 16.8839 20.9292 16.8844 20.9272 16.885L21.1925 17.8492C21.1947 17.8486 21.1968 17.848 21.1988 17.8474L20.9333 16.8833Z"/>
</svg>
