<svg width="15" height="14" viewBox="0 0 15 14" fill="none" xmlns="http://www.w3.org/2000/svg">
<path d="M5.5511 0.375254L5.925 0.562194C6.54166 0.870508 7.04167 1.3705 7.35 1.98713C7.4118 2.11073 7.5882 2.11073 7.65 1.98713C7.95833 1.3705 8.45835 0.870508 9.075 0.562194L9.4489 0.375254C10.2078 -0.00419754 11.0775 -0.0996561 11.9007 0.10613C12.6927 0.304123 13.3924 0.768694 13.8822 1.42177L14.0921 1.70156C14.6814 2.48733 15 3.44304 15 4.42525V4.73774C15 5.18554 14.9451 5.63165 14.8365 6.06609L14.7633 6.35877C14.507 7.38382 14.0484 8.3473 13.4144 9.19258L12.9881 9.761C12.6631 10.1943 12.3078 10.604 11.9248 10.9869L11.4924 11.4193C10.5039 12.4077 9.36257 13.2303 8.11225 13.8555C7.72683 14.0482 7.27317 14.0482 6.88775 13.8555C5.63743 13.2303 4.49607 12.4077 3.50761 11.4193L3.07522 10.9869C2.69222 10.604 2.33689 10.1943 2.01191 9.761L1.58558 9.19258C0.951593 8.3473 0.492983 7.38382 0.236708 6.35877L0.163535 6.06609C0.0549217 5.63165 0 5.18554 0 4.73774V4.42525C0 3.44304 0.318585 2.48733 0.907937 1.70156L1.11779 1.42177C1.60762 0.768694 2.30733 0.304123 3.09934 0.10613C3.92252 -0.0996561 4.79217 -0.00419754 5.5511 0.375254Z" fill="#CE395F"/>
</svg>
