<svg width="44" height="29" viewBox="0 0 44 29" fill="none" xmlns="http://www.w3.org/2000/svg">
<rect x="7.5" y="0.5" width="36" height="28" rx="8" fill="#E6436D"/>
<rect x="0.5" y="0.5" width="36" height="28" rx="8" fill="#65D2E9"/>
<rect x="4" y="0.5" width="36" height="28" rx="8" fill="#161722"/>
<path d="M21.25 8.25C20.9739 8.25 20.75 8.47386 20.75 8.75V13.5H16C15.7239 13.5 15.5 13.7239 15.5 14V15.5C15.5 15.7761 15.7239 16 16 16H20.75V20.75C20.75 21.0261 20.9739 21.25 21.25 21.25H22.75C23.0261 21.25 23.25 21.0261 23.25 20.75V16H28C28.2761 16 28.5 15.7761 28.5 15.5V14C28.5 13.7239 28.2761 13.5 28 13.5H23.25V8.75C23.25 8.47386 23.0261 8.25 22.75 8.25H21.25Z" fill="white"/>
</svg>
